<?xml version="1.0" encoding="UTF-8"?>
<!-- Tasty Bites Hub - App icon (fork + burger/plate) - no heart/love -->
<svg xmlns="http://www.w3.org/2000/svg" width="1200" height="1200" viewBox="0 0 100 100" fill="none">
  <path d="M50 6c19 0 34 6.5 42 12v36c0 32-20 57-42 64-22-7-42-32-42-64V18c8-5.5 23-12 42-12z" fill="#F97316"/>
  <path d="M50 18c15 0 27 5.2 27 5.2V51c0 22-13.7 39.5-27 44-13.3-4.5-27-22-27-44V23.2S35 18 50 18z" fill="#FFFFFF" opacity="0.96"/>
  <rect x="30" y="30" width="10" height="40" rx="5" fill="#F97316"/>
  <rect x="27" y="38" width="16" height="8" rx="4" fill="#F97316"/>
  <rect x="27" y="55" width="16" height="8" rx="4" fill="#F97316"/>
  <path d="M35 62c3-11 10-18 15-18s12 7 15 18c1.2 4-0.8 7.5-4 7.5H39c-3.2 0-5.2-3.5-4-7.5z" fill="#F97316"/>
  <rect x="40" y="48" width="20" height="10" rx="5" fill="#F97316"/>
  <path d="M24 75h52c3 0 5-2 5-5s-2-5-5-5H24c-3 0-5 2-5 5s2 5 5 5z" fill="#F97316"/>
</svg>
