<svg width="140" height="180" viewBox="0 0 140 180" fill="none" xmlns="http://www.w3.org/2000/svg">
  <rect x="10" y="10" width="120" height="120" rx="24" fill="#fff7ef" stroke="#c2410c" stroke-width="6" />
  <path d="M70 26C94 26 114 46 114 70C114 94 94 114 70 114C46 114 26 94 26 70C26 46 46 26 70 26Z" fill="#d97706" />
  <path d="M70 36C87 36 100 49 100 66C100 83 87 96 70 96C53 96 40 83 40 66C40 49 53 36 70 36Z" fill="#f59e0b" />
  <path d="M45 42L45 88" stroke="#732f12" stroke-width="6" stroke-linecap="round" />
  <path d="M49 42C49 36 56 36 56 42V60" stroke="#fff" stroke-width="4" stroke-linecap="round" />
  <path d="M95 42L95 92" stroke="#732f12" stroke-width="6" stroke-linecap="round" />
  <path d="M95 92C95 98 89 98 89 92V70" stroke="#fff" stroke-width="4" stroke-linecap="round" />
  <path d="M70 56L70 110" stroke="#732f12" stroke-width="6" stroke-linecap="round" />
  <path d="M42 92H98" stroke="#732f12" stroke-width="5" stroke-linecap="round" />
  <path d="M58 106H82" stroke="#732f12" stroke-width="5" stroke-linecap="round" />
  <text x="70" y="150" fill="#7c2d12" font-family="Inter, sans-serif" font-size="16" font-weight="700" text-anchor="middle">TASTY BITES</text>
  <text x="70" y="170" fill="#7c2d12" font-family="Inter, sans-serif" font-size="14" font-weight="700" text-anchor="middle">HOTEL</text>
</svg>
